<svg xmlns="http://www.w3.org/2000/svg" width="24" height="24" fill="none">
  <path fill="#fff" d="M11.78 19.42c.6 0 1.08.45 1.15 1.02v1.97a1.15 1.15 0 0 1-2.3.13v-1.97c0-.64.51-1.15 1.15-1.15Zm-5.4-2.24c.42.42.45 1.08.1 1.53l-.1.1-1.3 1.3a1.15 1.15 0 0 1-1.72-1.53l.09-.1 1.3-1.3a1.15 1.15 0 0 1 1.63 0Zm12.43 0 1.3 1.3a1.15 1.15 0 1 1-1.63 1.63l-1.3-1.3a1.15 1.15 0 1 1 1.63-1.63Zm-7.03-11.3a5.9 5.9 0 1 1-.01 11.82 5.9 5.9 0 0 1 .01-11.82Zm10.63 4.75a1.15 1.15 0 1 1 0 2.3h-1.84a1.15 1.15 0 1 1 0-2.3h1.84Zm-19.42 0a1.15 1.15 0 0 1 .13 2.3H1.15a1.15 1.15 0 0 1-.12-2.3h1.96Zm1.99-7.27.1.1 1.3 1.3a1.15 1.15 0 0 1-1.53 1.71l-.1-.09-1.3-1.3a1.15 1.15 0 0 1 1.53-1.72Zm15.13.09c.45.45.45 1.18 0 1.63l-1.3 1.3a1.15 1.15 0 1 1-1.63-1.63l1.3-1.3a1.15 1.15 0 0 1 1.63 0ZM11.78 0c.64 0 1.15.52 1.15 1.15V3a1.15 1.15 0 0 1-2.3 0V1.15c0-.63.51-1.15 1.15-1.15Z"/>
</svg>
